<mxfile host="app.diagrams.net" agent="Mozilla/5.0 (Windows NT 10.0; Win64; x64) AppleWebKit/537.36 (KHTML, like Gecko) Chrome/128.0.0.0 Safari/537.36" version="24.7.10">
  <diagram name="Page-1" id="Lm4u6CjcVu1FLbsV_WMH">
    <mxGraphModel dx="1265" dy="1105" grid="1" gridSize="10" guides="1" tooltips="1" connect="1" arrows="1" fold="1" page="1" pageScale="1" pageWidth="850" pageHeight="1100" math="0" shadow="0">
      <root>
        <mxCell id="0" />
        <mxCell id="1" parent="0" />
        <mxCell id="c66coFnCsQm6DAkuOdEg-5" value="no" style="edgeStyle=orthogonalEdgeStyle;rounded=0;orthogonalLoop=1;jettySize=auto;html=1;" edge="1" parent="1" source="c66coFnCsQm6DAkuOdEg-1" target="c66coFnCsQm6DAkuOdEg-4">
          <mxGeometry relative="1" as="geometry" />
        </mxCell>
        <mxCell id="c66coFnCsQm6DAkuOdEg-9" value="yes" style="edgeStyle=orthogonalEdgeStyle;rounded=0;orthogonalLoop=1;jettySize=auto;html=1;" edge="1" parent="1" source="c66coFnCsQm6DAkuOdEg-1" target="c66coFnCsQm6DAkuOdEg-8">
          <mxGeometry relative="1" as="geometry" />
        </mxCell>
        <mxCell id="c66coFnCsQm6DAkuOdEg-1" value="Are there dishes&lt;br&gt;&amp;nbsp;in the sink?" style="rhombus;whiteSpace=wrap;html=1;" vertex="1" parent="1">
          <mxGeometry x="80" y="190" width="130" height="120" as="geometry" />
        </mxCell>
        <mxCell id="c66coFnCsQm6DAkuOdEg-4" value="continue cleaning the kitchen" style="rounded=1;whiteSpace=wrap;html=1;" vertex="1" parent="1">
          <mxGeometry x="295" y="220" width="120" height="60" as="geometry" />
        </mxCell>
        <mxCell id="c66coFnCsQm6DAkuOdEg-11" value="yes" style="edgeStyle=orthogonalEdgeStyle;rounded=0;orthogonalLoop=1;jettySize=auto;html=1;" edge="1" parent="1" source="c66coFnCsQm6DAkuOdEg-8" target="c66coFnCsQm6DAkuOdEg-10">
          <mxGeometry relative="1" as="geometry" />
        </mxCell>
        <mxCell id="c66coFnCsQm6DAkuOdEg-16" value="no" style="edgeStyle=orthogonalEdgeStyle;rounded=0;orthogonalLoop=1;jettySize=auto;html=1;exitX=1;exitY=0.5;exitDx=0;exitDy=0;entryX=1;entryY=0.5;entryDx=0;entryDy=0;" edge="1" parent="1" source="c66coFnCsQm6DAkuOdEg-8" target="c66coFnCsQm6DAkuOdEg-12">
          <mxGeometry relative="1" as="geometry" />
        </mxCell>
        <mxCell id="c66coFnCsQm6DAkuOdEg-8" value="Is the dishwasher&lt;br&gt;full of dishes?" style="rhombus;whiteSpace=wrap;html=1;" vertex="1" parent="1">
          <mxGeometry x="80" y="390" width="130" height="120" as="geometry" />
        </mxCell>
        <mxCell id="c66coFnCsQm6DAkuOdEg-13" value="" style="edgeStyle=orthogonalEdgeStyle;rounded=0;orthogonalLoop=1;jettySize=auto;html=1;" edge="1" parent="1" source="c66coFnCsQm6DAkuOdEg-10" target="c66coFnCsQm6DAkuOdEg-12">
          <mxGeometry relative="1" as="geometry" />
        </mxCell>
        <mxCell id="c66coFnCsQm6DAkuOdEg-10" value="unload the dishwasher" style="rounded=1;whiteSpace=wrap;html=1;" vertex="1" parent="1">
          <mxGeometry x="85" y="620" width="120" height="60" as="geometry" />
        </mxCell>
        <mxCell id="c66coFnCsQm6DAkuOdEg-12" value="load the dishwasher" style="whiteSpace=wrap;html=1;rounded=1;" vertex="1" parent="1">
          <mxGeometry x="85" y="760" width="120" height="60" as="geometry" />
        </mxCell>
        <mxCell id="c66coFnCsQm6DAkuOdEg-18" value="" style="edgeStyle=orthogonalEdgeStyle;rounded=0;orthogonalLoop=1;jettySize=auto;html=1;" edge="1" parent="1" source="c66coFnCsQm6DAkuOdEg-17" target="c66coFnCsQm6DAkuOdEg-1">
          <mxGeometry relative="1" as="geometry" />
        </mxCell>
        <mxCell id="c66coFnCsQm6DAkuOdEg-17" value="clean the kitchen" style="rounded=1;whiteSpace=wrap;html=1;" vertex="1" parent="1">
          <mxGeometry x="85" y="40" width="120" height="60" as="geometry" />
        </mxCell>
      </root>
    </mxGraphModel>
  </diagram>
</mxfile>
